<?xml version="1.0" encoding="utf-8"?>
<!-- Generator: Adobe Illustrator 21.1.0, SVG Export Plug-In . SVG Version: 6.00 Build 0)  -->
<svg version="1.1" id="_x2018_лой_x5F_1" xmlns="http://www.w3.org/2000/svg" xmlns:xlink="http://www.w3.org/1999/xlink"
	 x="0px" y="0px" viewBox="0 0 2697.4 1737.9" style="enable-background:new 0 0 2697.4 1737.9;" xml:space="preserve">
<style type="text/css">
	.st0{fill:#EBF3FA;}
	.st1{fill:#AFCDFB;}
	.st2{opacity:0.6;fill:#FFFFFF;}
	.st3{fill:#699DEE;}
	.st4{fill:#DDE7FE;}
	.st5{opacity:0.5;fill:#CDE0FB;}
	.st6{opacity:0.5;fill:#7C9AF2;}
	.st7{opacity:0.3;}
	.st8{fill:#BDD1F9;}
	.st9{fill:#F99746;}
	.st10{fill:#ED7D2B;}
	.st11{fill:#474FEA;}
	.st12{fill:#B5453C;}
	.st13{fill:#233862;}
	.st14{fill:#2B478B;}
	.st15{fill:#FCECDB;}
	.st16{fill:#548EE2;}
	.st17{fill:#F4D2B8;}
	.st18{fill:#568CDB;}
	.st19{fill:#A4C4F4;}
	.st20{fill:#ED985F;}
	.st21{fill:#FFB27D;}
	.st22{fill:#F9DDBF;}
	.st23{fill:#DD6D22;}
	.st24{fill:#FFFFFF;}
	.st25{fill:#163560;}
	.st26{fill:#1C468A;}
	.st27{fill:#EFDECE;}
	.st28{fill:#ED975D;}
	.st29{fill:#F2CCAA;}
	.st30{fill:#C65447;}
	.st31{fill:#2C3A64;}
</style>
<g>
	<path class="st0" d="M21.3,1737.9l903.9-4.7l240.9-0.1l79.8,0l241.4-0.1l1102.9-0.3c0,0,252.3-323.5-17.2-630.7
		c-279.4-318.5-415.2-59.1-501.1-507.5C1855.7-534-281.4,122.9,279.1,1083.3C481,1429.1-118.2,1245.3,21.3,1737.9z"/>
	<g>
		<g>
			<path class="st1" d="M852.8,1502.4l-4.9-2.7c-5.2-2.9-7.1-9.4-4.3-14.6l22.5-41c2.9-5.2,9.4-7.1,14.6-4.3l7,3.8
				c1,0.6,1.4,1.8,0.8,2.9c-0.6,1-1.8,1.4-2.9,0.8l-7-3.8c-3.2-1.7-7.2-0.6-8.9,2.6l-22.5,41c-1.7,3.2-0.6,7.2,2.6,8.9l4.9,2.7
				c3.2,1.7,7.2,0.6,8.9-2.6l14.9-27.2c0.6-1,1.8-1.4,2.9-0.8c1,0.6,1.4,1.8,0.8,2.9l-14.9,27.2
				C864.6,1503.3,858.1,1505.3,852.8,1502.4z"/>
		</g>
		<g>
			<path class="st1" d="M832,1545.5l-8.8-4.8c-8.1-4.5-10.9-15.2-6.1-23.9l33.8-61.7c0.6-1,1.8-1.4,2.9-0.8c1,0.6,1.4,1.8,0.8,2.9
				l-33.8,61.7c-3.7,6.7-1.7,14.8,4.4,18.2l8.8,4.8c6.1,3.3,14,0.6,17.7-6.1l38.5-70.2c3.7-6.7,1.7-14.8-4.4-18.2
				c-1-0.6-1.4-1.8-0.8-2.9c0.6-1,1.8-1.4,2.9-0.8c8.1,4.5,10.9,15.2,6.1,23.9l-38.5,70.2C850.6,1546.5,840.1,1549.9,832,1545.5z"/>
		</g>
	</g>
	<g>
		<path class="st2" d="M1676,1274.3H600.6c-26.4,0-47.9-21.4-47.9-47.9V323.8c0-26.4,21.4-47.9,47.9-47.9H1676
			c26.4,0,47.9,21.4,47.9,47.9v902.7C1723.9,1252.9,1702.5,1274.3,1676,1274.3z"/>
		<path class="st3" d="M1723.9,386.7H552.7v-75c0-19.7,16-35.7,35.7-35.7h1099.8c19.7,0,35.7,16,35.7,35.7V386.7z"/>
		<g>
			<circle class="st4" cx="613.3" cy="330.6" r="13.2"/>
			<circle class="st4" cx="668.9" cy="330.6" r="13.2"/>
			<circle class="st4" cx="724.5" cy="330.6" r="13.2"/>
		</g>
		<rect x="645.5" y="474.6" class="st5" width="332" height="332"/>
		<path class="st6" d="M1331.9,499.3h-264.1c-6.9,0-12.5-5.6-12.5-12.5l0,0c0-6.9,5.6-12.5,12.5-12.5h264.1
			c6.9,0,12.5,5.6,12.5,12.5l0,0C1344.4,493.7,1338.8,499.3,1331.9,499.3z"/>
		<path class="st6" d="M1647.7,482.5h-264.1c-6.9,0-12.5-5.6-12.5-12.5l0,0c0-6.9,5.6-12.5,12.5-12.5h264.1
			c6.9,0,12.5,5.6,12.5,12.5l0,0C1660.2,476.9,1654.6,482.5,1647.7,482.5z"/>
		<g class="st7">
			<path class="st8" d="M1384.1,595.9h-320.8c-4.5,0-8.1-3.6-8.1-8.1l0,0c0-4.5,3.6-8.1,8.1-8.1h320.8c4.5,0,8.1,3.6,8.1,8.1l0,0
				C1392.3,592.3,1388.6,595.9,1384.1,595.9z"/>
			<path class="st8" d="M1506.1,595.9h-84.7c-4.5,0-8.1-3.6-8.1-8.1l0,0c0-4.5,3.6-8.1,8.1-8.1h84.7c4.5,0,8.1,3.6,8.1,8.1l0,0
				C1514.2,592.3,1510.6,595.9,1506.1,595.9z"/>
			<path class="st8" d="M1184.4,646.4h-121c-4.5,0-8.1-3.6-8.1-8.1l0,0c0-4.5,3.6-8.1,8.1-8.1h121c4.5,0,8.1,3.6,8.1,8.1l0,0
				C1192.5,642.7,1188.9,646.4,1184.4,646.4z"/>
			<path class="st8" d="M1380.4,646.4h-165.8c-4.5,0-8.1-3.6-8.1-8.1l0,0c0-4.5,3.6-8.1,8.1-8.1h165.8c4.5,0,8.1,3.6,8.1,8.1l0,0
				C1388.6,642.7,1384.9,646.4,1380.4,646.4z"/>
			<path class="st8" d="M1506.1,646.4h-84.7c-4.5,0-8.1-3.6-8.1-8.1l0,0c0-4.5,3.6-8.1,8.1-8.1h84.7c4.5,0,8.1,3.6,8.1,8.1l0,0
				C1514.2,642.7,1510.6,646.4,1506.1,646.4z"/>
			<path class="st8" d="M1227.6,690h-164.2c-4.5,0-8.1-3.6-8.1-8.1l0,0c0-4.5,3.6-8.1,8.1-8.1h164.2c4.5,0,8.1,3.6,8.1,8.1l0,0
				C1235.7,686.3,1232.1,690,1227.6,690z"/>
			<path class="st8" d="M1541.2,690h-268.6c-4.5,0-8.1-3.6-8.1-8.1l0,0c0-4.5,3.6-8.1,8.1-8.1h268.6c4.5,0,8.1,3.6,8.1,8.1l0,0
				C1549.3,686.3,1545.7,690,1541.2,690z"/>
		</g>
		<g class="st7">
			<path class="st8" d="M1384.1,756.2h-320.8c-4.5,0-8.1-3.6-8.1-8.1l0,0c0-4.5,3.6-8.1,8.1-8.1h320.8c4.5,0,8.1,3.6,8.1,8.1l0,0
				C1392.3,752.5,1388.6,756.2,1384.1,756.2z"/>
			<path class="st8" d="M1506.1,756.2h-84.7c-4.5,0-8.1-3.6-8.1-8.1l0,0c0-4.5,3.6-8.1,8.1-8.1h84.7c4.5,0,8.1,3.6,8.1,8.1l0,0
				C1514.2,752.5,1510.6,756.2,1506.1,756.2z"/>
			<path class="st8" d="M1184.4,806.6h-121c-4.5,0-8.1-3.6-8.1-8.1l0,0c0-4.5,3.6-8.1,8.1-8.1h121c4.5,0,8.1,3.6,8.1,8.1l0,0
				C1192.5,803,1188.9,806.6,1184.4,806.6z"/>
			<path class="st8" d="M1380.4,806.6h-165.8c-4.5,0-8.1-3.6-8.1-8.1l0,0c0-4.5,3.6-8.1,8.1-8.1h165.8c4.5,0,8.1,3.6,8.1,8.1l0,0
				C1388.6,803,1384.9,806.6,1380.4,806.6z"/>
		</g>
		<g>
			<path class="st8" d="M794.4,524.1h34.3l92.6,212h-39.1l-21.4-50.8h-99.6l-21.7,50.8h-37.9L794.4,524.1z M847.3,652.5l-36.4-84.2
				l-36.1,84.2H847.3z"/>
		</g>
		<g>
			<rect x="645.5" y="873.5" class="st9" width="185.5" height="35.8"/>
			<rect x="645.5" y="909.3" class="st10" width="185.5" height="35.8"/>
			<rect x="645.5" y="945.1" class="st11" width="185.5" height="35.8"/>
		</g>
		<g>
			<path class="st8" d="M967.6,893.7h-102c-4.3,0-7.7-3.5-7.7-7.7l0,0c0-4.3,3.5-7.7,7.7-7.7h102c4.3,0,7.7,3.5,7.7,7.7l0,0
				C975.3,890.3,971.9,893.7,967.6,893.7z"/>
			<path class="st8" d="M933.2,921h-67.7c-4.3,0-7.7-3.5-7.7-7.7l0,0c0-4.3,3.5-7.7,7.7-7.7h67.7c4.3,0,7.7,3.5,7.7,7.7l0,0
				C941,917.5,937.5,921,933.2,921z"/>
		</g>
		<g>
			<rect x="645.5" y="1058.6" class="st9" width="185.5" height="73.2"/>
			<rect x="645.5" y="1113.7" class="st12" width="185.5" height="52.3"/>
			<polygon class="st11" points="645.5,1058.6 712,1114.5 645.5,1166 			"/>
		</g>
		<g>
			<path class="st8" d="M967.6,1078.9h-102c-4.3,0-7.7-3.5-7.7-7.7l0,0c0-4.3,3.5-7.7,7.7-7.7h102c4.3,0,7.7,3.5,7.7,7.7l0,0
				C975.3,1075.4,971.9,1078.9,967.6,1078.9z"/>
			<path class="st8" d="M933.2,1106.1h-67.7c-4.3,0-7.7-3.5-7.7-7.7l0,0c0-4.3,3.5-7.7,7.7-7.7h67.7c4.3,0,7.7,3.5,7.7,7.7l0,0
				C941,1102.7,937.5,1106.1,933.2,1106.1z"/>
		</g>
	</g>
	<g>
		<path class="st13" d="M1735.7,366.3c0,0,4.8,57.6-8.3,56.7c-13.1-0.9-39-26.2-91.3-22.1s-116.2,15.6-154.8-52.8
			c-38.6-68.4,49.4-88.1,49.4-88.1L1735.7,366.3L1735.7,366.3z"/>
		<polygon class="st14" points="1624.7,362.1 1888,383.8 1893.5,372 1641,185.7 1386,155.9 1381.1,166.4 1624.7,362.1 		"/>
		<g>
			<path class="st9" d="M1803.9,560.4c-1.6-5.4-7.2-8.6-12.6-7c-5.4,1.6-8.6,7.2-7,12.6c1.5,5.4,7.2,8.6,12.6,7
				C1802.3,571.5,1805.4,565.8,1803.9,560.4L1803.9,560.4z"/>
			<path class="st9" d="M1795.1,563.2c10.6-0.8,13,95.3,13,95.3s-6.9,3.2-10.3,2.5c-3.4-0.8-5.1-13.7-5.1-13.7l-0.3,13.6
				c0,0-11.6,0.4-15.6-2.4C1776.8,658.4,1778.4,564.5,1795.1,563.2L1795.1,563.2z"/>
		</g>
		<polygon class="st9" points="1798.5,565.4 1796.6,355.5 1795.3,354.4 1657.7,252.7 1652.8,259.4 1788.9,360.1 1792,565 		"/>
	</g>
	<g>
		<g>
			<g>
				<path class="st15" d="M1976,1556h-578.5v-219.8h580.4c46.9,0,84.9,38,84.9,84.9v48C2062.9,1517.1,2024,1556,1976,1556z"/>
				<path class="st3" d="M2559.1,1426.6v33.1c0,17.7-4.4,34.2-12.2,48.4c-15.6,28.6-44.6,47.9-77.8,47.9H1379.7c-7.2,0-13-6.3-13-14
					v-5c0-7.7,5.8-14,13-14h664.1c3.6-4.6,6.7-9.6,9.3-15c6.2-12.5,9.7-26.8,9.7-42v-42c0-7.7-0.9-15.2-2.7-22.4
					c-3-12.1-8.3-23.2-15.4-32.6h-665.1c-7.2,0-13-6.3-13-14v-4.9c0-7.7,5.8-14,13-14h1094.9c38.6,0,71.1,27.7,81.2,65.5
					C2558,1409.6,2559.1,1418,2559.1,1426.6z"/>
				<path class="st16" d="M2555.8,1401.7h-495.7c-3-12.1-8.3-23.2-15.4-32.6h-665.1c-7.2,0-13-6.3-13-14v-4.9c0-7.7,5.8-14,13-14
					h1094.9C2513.2,1336.2,2545.7,1363.9,2555.8,1401.7z"/>
			</g>
			<polygon class="st17" points="1397.5,1446.1 1478.2,1449.8 1397.5,1452 			"/>
			<polygon class="st17" points="1397.5,1480.5 1589.4,1484.2 1397.5,1486.5 			"/>
		</g>
		<g>
			<g>
				<g>
					<path class="st9" d="M1313,1726.5h567.9v-171H1308c-42.5,0-77,34.5-77,77v11.9C1230.9,1689.7,1267.7,1726.5,1313,1726.5z"/>
					<path class="st15" d="M1853.5,1726.5h647.2v-171h-649c-43.3,0-78.3,35.1-78.3,78.3v12.5
						C1773.4,1690.6,1809.2,1726.5,1853.5,1726.5z"/>
					<path class="st9" d="M1730.6,1726.5h791.9c6.6,0,11.9-5.3,11.9-11.9v-1.8c0-6.6-5.3-11.9-11.9-11.9h-791.9
						c-6.6,0-11.9,5.3-11.9,11.9v1.8C1718.7,1721.1,1724.1,1726.5,1730.6,1726.5z"/>
					<path class="st9" d="M1730.6,1581.1h791.9c6.6,0,11.9-5.3,11.9-11.9v-1.8c0-6.6-5.3-11.9-11.9-11.9h-791.9
						c-6.6,0-11.9,5.3-11.9,11.9v1.8C1718.7,1575.7,1724.1,1581.1,1730.6,1581.1z"/>
				</g>
				<polygon class="st17" points="2500.7,1641 2412.5,1643.8 2500.7,1645.6 				"/>
				<polygon class="st17" points="2500.7,1601.6 2290.9,1604.5 2500.7,1606.2 				"/>
			</g>
			<g>
				<path class="st3" d="M2293.1,1603.9c0,0,9,7.3,12,19.4c0.5,2.1,0.9,4.4,0.9,6.8c0.5,16,0,52.3,0,52.3l26.5-18.2l26.5,18.2v-49.2
					c0-9.3-2.3-18.4-6.5-24.3c-2-2.9-4.5-5-7.3-5H2293.1z"/>
				<path class="st18" d="M2293.1,1603.9c0,0,9,7.3,12,19.4l53.2,0.7c0,0-2.1-17.3-13.1-20.1H2293.1z"/>
			</g>
		</g>
		<g>
			<g>
				<g>
					<path class="st15" d="M1810.5,1336.6h-558.9v-251.2h561c49.6,0,89.8,40.2,89.8,89.8v69.5
						C1902.3,1295.5,1861.2,1336.6,1810.5,1336.6z"/>
					<path class="st1" d="M1902.6,1182.9v54.1c-0.1,23.1-10.8,43.1-26.6,53.8c-7.7,5.3-16.7,8.3-26.2,8.3h-615.4
						c-7.2,0-13.1,7-13.1,15.6v6.4c0,8.6,5.8,15.6,13.1,15.6h1063.2c30.5,0,57.5-18.1,73.8-45.8c10.3-17.5,16.3-38.7,16.3-61.7
						v-42.7c0-15.7-3-30.6-8.4-43.9c-13.7-33.8-42.6-57.1-76.2-57.1H1234.4c-7.2,0-13.1,7-13.1,15.6v6.4c0,8.6,5.8,15.6,13.1,15.6
						h617.3c14.8,0,28.1,7.5,37.4,19.5C1897.4,1153.2,1902.5,1167.3,1902.6,1182.9z"/>
					<path class="st19" d="M1221.3,1314.7v6.4c0,8.6,5.8,15.6,13.1,15.6h1063.2c30.5,0,57.5-18.1,73.8-45.8h-495.3
						c-7.7,5.3-16.7,8.3-26.2,8.3h-615.4C1227.2,1299.1,1221.3,1306,1221.3,1314.7z"/>
				</g>
				<polygon class="st17" points="1251.5,1211 1330.4,1215.3 1251.5,1217.8 				"/>
				<polygon class="st17" points="1251.5,1153.2 1439.2,1157.5 1251.5,1160 				"/>
			</g>
			<g>
				<path class="st9" d="M1437.3,1156.6c0,0-12.4,8-16.5,21.1c-0.7,2.3-1.2,4.7-1.3,7.3c-0.7,17.4,0,56.8,0,56.8l-36.6-19.7
					l-36.5,19.7v-53.4c0-10.1,3.1-19.9,8.9-26.3c2.8-3.1,6.2-5.5,10.1-5.5H1437.3z"/>
				<path class="st10" d="M1437.3,1156.6c0,0-12.4,8-16.5,21.1l-73.3,0.8c0,0,2.9-18.7,18-21.8H1437.3z"/>
			</g>
		</g>
	</g>
	<g id="girl_2_15_">
		<path class="st20" d="M503,1314.4c0,0,114.6,49.9,135.4,49c20.8-0.9,148.9-39,148.9-39l-3.3,22c0,0-98.9,56.9-133.5,60.1
			c-34,3.2-150.4-30.5-161.7-37.7C477.7,1361.7,470.4,1321.6,503,1314.4z"/>
		<path class="st13" d="M485.8,1130.8c0,0-42.3-8-63.3,7.3c-38.1,27.8-40.2,123.8-54.5,138.1c-14.3,14.3-48.7,8.2-51.8,82.2
			c-3.1,74,13.7,80.2-6.3,113.2c-20,33,8.5,66.1,8.5,66.1s-11.6-18.2-6.7-31.4c0,0,4.8,29,23.3,35.9c18.5,6.8,21.2,11.8,24.1,21.8
			c0,0,157.4-80.7,157.6-137.9s31-113.9,15.9-138.7c0,0,6.7,10.6,7.6,22.4c0,0,9.1-17.4-6.7-33.6c-15.7-16.2,18.5-49.7,13.4-88.5
			C543.5,1161.1,524.8,1131.9,485.8,1130.8z"/>
		<path class="st21" d="M517,1368.9c-10.1,7-22.7,12.7-38.5,16.4c-59.4,13.7-82.1-36.5-90.7-70.9c8.1-4.6,15.7-5.7,20.1-6.2
			c4.3-0.5,8.8-0.8,12.5-1c6.7-5.1,16.6-26,18.8-58.5l2.8,0.7l46.8,12.8c0,0-2.1,14.9-3.2,28.9c-0.8,11-0.9,21.5,1.1,24.1
			c3.7,0.8,5.8,1.3,5.8,1.3s0,0,0,0C493.3,1317.7,506.8,1340,517,1368.9z"/>
		<path class="st20" d="M488.8,1262.3c0,0-2.2,14.9-3.2,28.9c-26.5-2.7-38.8-27.9-43.6-41.7L488.8,1262.3z"/>
		<path class="st21" d="M496.7,1276.3c0,0-62.9-3.5-60.2-42.6c2.8-39.2-3.5-66,36.8-65.4c40.3,0.6,47,16.1,49.3,29.3
			C524.9,1210.9,513.2,1276.2,496.7,1276.3z"/>
		<path class="st13" d="M522.4,1175.7c-8.9-12.5-16.4-10.4-20.8-7.2c-33-21.3-57.1,5-57.1,5c-6.2,27.8-27.6,42.4-27.6,42.4
			s10.9,7.9,37.8,3c8.2-1.5,15.8-6.7,22.4-13.2c-12,17.1-27.4,29-27.4,29c32.6-12.3,48.4-55.3,50-59.8c3.6,3.7,10.6,11.7,12.4,19.2
			c2.4,10.2,12.8,26.1,18.9,25.9C531,1220,535.7,1194.4,522.4,1175.7z"/>
		<path class="st22" d="M369.9,1496.9c-5.7-29-24.2-145.1-5.7-182.4c6.7-13.4,32.8-14.6,61.4-13.4c8.9,5.8,42.9,27.5,56.8,24.8
			c0.1,0,0.4-0.1,0.8-0.2c6.6-1.6,9.1-6.3,3.6-10.2c0,0,14.2-1.4,31.8,1.9c10,1.9,36.8,15.8,36.8,15.8s-13.5,24.4-33.4,32.8
			c3.4,30.3-1.7,43.7-33.1,113.7c-26.6,59.2,3.6,112.5,3.6,112.5s-156.5,125.8-157.3,61.7C334.4,1605.6,377.1,1534,369.9,1496.9z"/>
		<path class="st23" d="M500.2,1728.9c8.5-1,16.2-5.6,20.9-12.7c0.8-1.1,1.6-2.3,2.4-3.6c17.8-27,24.7-109.5,64.8-197.5
			c9.8-21.4,44.8-25.3,54.3-49.5c0,0,23.5-78.5-45-80.8c-68.5-2.3-183.4,218.3-185.3,241.5C410.6,1648.6,367.1,1743.9,500.2,1728.9z
			"/>
		<path class="st13" d="M772.4,1727.1h-97.5c0,0-3.6-15.5,2.8-26.1c5.7-9.4,3.5-14.7-0.7-22.4c4.4,1.8,10.1,3.5,16.4,3.1
			c4.9-0.3,10-2.5,14.5-5.1c4.2,4.8,22.2,25.1,27.8,29.2C742,1710.3,770.4,1708.6,772.4,1727.1z"/>
		<path class="st10" d="M644.9,1407.4c5.9,44,28.8,182.9,69.2,250.7c13,21.8-32.8,34.1-33.1,34c-6.2-1.6-16.4-11.4-21.1-15.7
			c-32.8-29.6-99.5-113.4-99.5-180.5c0-32.8-0.6-95.3,23.2-111.2C598.3,1375,642.5,1390,644.9,1407.4z"/>
		<path class="st9" d="M442,1727.1c0,0,3.6-5,9.9-14.6c7.5-11.4,15.8-33.7,25.9-62.4c10.6-30.1,23.1-67.1,38.8-105.6
			c4.8-11.9,10-23.9,15.4-35.9c9.8-21.4,36.6-18.5,46.1-42.7c0,0,37.3-83.9-31.2-86.2c-68.5-2.3-198.7,224.5-206.1,246.5
			C332.6,1650.3,292.7,1750.1,442,1727.1z"/>
		<path class="st14" d="M700.8,1727.1h-97.5c0,0-3.6-15.5,2.8-26.1c5.7-9.4,3.5-14.7-0.7-22.4c4.4,1.8,10.1,3.5,16.4,3.1
			c4.9-0.3,10-2.5,14.5-5.1c4.2,4.8,22.2,25.1,27.8,29.2C670.5,1710.3,698.9,1708.6,700.8,1727.1z"/>
		<path class="st10" d="M477.8,1650.1c10.6-30.1,23.1-67.1,38.8-105.6c-4.1-29.2-12.9-54.7-27.8-65
			C488.8,1479.6,452.8,1591.2,477.8,1650.1z"/>
		<path class="st9" d="M588,1404.3c5.9,44,14.1,186,54.6,253.8c13,21.8-32.8,34.1-33.1,34c-6.2-1.6-16.4-11.4-21.1-15.7
			c-32.8-29.6-99.5-113.4-99.5-180.5c0-32.8,38.4-92.7,62.3-108.6C565.7,1377.6,585.6,1386.8,588,1404.3z"/>
		<path class="st24" d="M508.5,1253.8c0,0-5.9-2.4-22.7-1c0,0,0.9,6.5,13.2,7.2C506.1,1260.3,508.5,1253.8,508.5,1253.8z"/>
		<g>
			<g>
				<polygon class="st25" points="799.6,1278.3 779.4,1241.8 735.6,1363.8 761.4,1391.5 				"/>
				<polygon class="st26" points="694,1299.6 653.4,1415.7 761.4,1391.5 799.6,1278.3 				"/>
				<polygon class="st27" points="655.5,1409.9 653.7,1406.6 692.1,1296.7 694,1299.6 				"/>
				<polygon class="st15" points="692.1,1296.7 794.5,1276.8 799.6,1278.3 694,1299.6 				"/>
			</g>
			<polygon class="st27" points="799.6,1278.3 777.7,1243.6 763.8,1282.7 794.5,1276.8 			"/>
		</g>
		<path class="st21" d="M725.2,1316.4c-3.5-0.7-11.1-3.5-18.7-5.6c2.3-1.8,4.8-3.9,5.5-6.2c1.4-4.3,2.3-5.7-2.3-4.3
			c-4.5,1.4-20.4,8.6-20.4,8.6s0,0,0,0c-9,2.6-17.3,15.4-17.3,15.4s-111.7,39.3-125.1,39.9c-20.8,1-159.2-49.9-159.2-49.9
			c-32.7,7.2-25.3,47.3-14.1,54.5s110.8,43.3,169.8,44c29.9,0.3,138.6-69.5,138.6-69.5s12.7-5.8,22.7-4c10,1.8,33.1,0,38.1-8.2
			C747.9,1323,731.1,1317.6,725.2,1316.4z"/>
		<path class="st22" d="M459.1,1339.5c0,0-12.4,39.2-54.9,48.1c0,0-70.2-21.6-35.2-69.4C369,1318.2,403.5,1292.5,459.1,1339.5z"/>
		<path class="st21" d="M797.8,1319.4L797.8,1319.4c0-1.1-0.1-2.1-0.4-3.2c0,0-10-15.8-13.3-16.5c-10-2-10,11.2-7.9,19.7
			c1.5,5.9,5.2,11.6,8.3,14.6l0,0l-0.4,12.4C801,1337.2,797.8,1319.4,797.8,1319.4z"/>
	</g>
	<g>
		<path class="st13" d="M1882.5,1292.6c18.4,32.5,41.7,45.1,41.7,45.1l97.3,0.7C2021.4,1338.4,1868.5,1267.8,1882.5,1292.6z"/>
		<g>
			<path class="st21" d="M1955.4,1543.4c2.5,2.9,2.8,6.2,1.5,9.6c0,0,0,0,0,0c-2.4,6.4-10.1,13.5-19,20.6c-1.1,0.9-2.2,1.7-3,2.5
				c-0.2,0.2-0.5,0.4-0.7,0.6c-0.2,0.2-0.4,0.3-0.5,0.5c-8.4,7.6-5.2,9.4-20.3,24.8c-17.1,17.6-28.8,17.8-32.2,16.2
				c-2.8-1.4,3-10.7,9.4-21.2c0.3-0.5,0.6-1,0.9-1.5c0.9-1.4,1.7-2.8,2.6-4.2c7.5-12.6,5.7-18.6,4-37.5
				c-1.3-15.4-23.3-85.9-23.3-85.9l32.6-5.4c0,0,9.4,56.1,20.2,64.9c5.8,4.6,12.2,4.7,17.8,8.2c0.4,0.2,0.8,0.5,1.2,0.7
				C1949.7,1538.3,1952.9,1540.5,1955.4,1543.4z"/>
			<path class="st13" d="M1955.4,1543.4c2.5,2.9,2.8,6.2,1.5,9.6c0,0,0,0,0,0c-2.9,6.4-10.4,13.5-19.1,20.5c-1.1,0.9-2.1,1.8-3,2.6
				c-0.2,0.2-0.5,0.4-0.7,0.6c-0.2,0.2-0.4,0.3-0.5,0.5c-8.4,7.6-5.2,9.4-20.3,24.8c-17.1,17.6-28.8,17.8-32.2,16.2
				c-2.8-1.4,3-10.7,9.4-21.2c3.3-1.2,18.7-7.3,30.5-22.1c10.3-13,17.3-29.7,24.3-39.4c0.4,0.2,0.8,0.5,1.2,0.7
				C1949.7,1538.3,1952.9,1540.5,1955.4,1543.4z"/>
			<path class="st21" d="M1692.8,1521.2c-2.1,10-16.4,8.3-32.4,4.2c-16-4-12.2,0.7-35-2c-22.8-2.7-29.6-11.2-30.3-14.6
				c-0.6-3,10.7-4,22.8-5.3c1.5-0.2,3-0.3,4.6-0.5c13.7-1.6,23.7-10.3,36.2-17.5c11.8-6.8,29.5-34.5,29.5-34.5l31.3,2.7
				c0,0-16.6,24.8-23,35.6c-3.8,6.3-3.6,14.8-3.2,21.3C1693.3,1514,1693.5,1517.7,1692.8,1521.2z"/>
			<path class="st13" d="M1660.4,1525.4c-16-4-12.2,0.7-35-2c-22.8-2.7-29.6-11.2-30.3-14.6c-0.6-3,10.7-4,22.8-5.3l0.1,0.2
				c0,0,13.6,9.8,32.6,10.4c15.5,0.5,31.9-3.8,42.6-3.6c0.2,3.5,0.4,7.2-0.3,10.7C1690.7,1531.2,1676.4,1529.5,1660.4,1525.4z"/>
			<path class="st13" d="M1814,1322.1l28.7,78.9l37.4,103c0,0,10.3,1.1,20.3-1.7c9.1-2.6,19.7-9.4,19.7-9.4s-9.8-110.3-29.1-173.8
				c-5-16.3-10.5-29.5-16.7-36.9C1843.8,1245.7,1814,1322.1,1814,1322.1z"/>
			<path class="st14" d="M1844.6,1197.4c19.2-6,73.8,2.3,128.5,13.4l11.6-18.9l118.6-8.4c0,0,38.5,87,16.7,142.1
				c-3.2,8.1-11,11.5-21.7,11.6c0,0,0,0,0,0c0,0-70.7,1.2-93.6,1.1c-58.9-0.4-124.4-41.4-132.9-43.2c-13.9-2.9-19.7,24.9-33.8,54.1
				c-14.1,29.2-131.9,128.6-131.9,128.6s-18,0.1-25.4-2.8c-8-3.1-10.9-7-10.9-7S1801.3,1211,1844.6,1197.4z"/>
			<path class="st13" d="M1986.6,1028.7c42,23.5,127.3,72.3,127.8,72c0,0,31.4,12.1,49.3,0.3c29.9-19.5,46.2-72.6-7.9-118.8
				c-27-23-46.2-28.7-48.9-65.2c-1.4-19.8-28-85.2-73-79.5c-3.8,0.5-7.5,0.8-11.3,0.7c-5.2-0.2-13.9,0.5-22.8,5.7
				C1974.3,859,1923.4,1019.3,1986.6,1028.7z"/>
			<path class="st21" d="M2022.1,1009.2c-0.2,0.1,20.7,7.4,34.8,1.3c13.2-5.7,23.4-27.3,23.2-27.4c-6-0.3-12.5-5.6-17.4-40l-2.6,0.9
				l-43,15.1c0,0,3,13.8,4.9,26.9C2023.7,997.1,2024.5,1007.7,2022.1,1009.2z"/>
			<path class="st28" d="M2017.1,959.2c0,0,1.8,9.7,4.4,23.5c24.7-4.3,35.1-25.3,38.6-38.6L2017.1,959.2z"/>
			<path class="st21" d="M2010.6,972.8c0,0,58.8-7.5,53.6-44c-5.2-36.5-1.1-62.1-38.9-58.9c-37.7,3.2-43,18.2-44.3,30.8
				C1979.8,913.3,1995.2,973.8,2010.6,972.8z"/>
			<path class="st13" d="M1983.3,880.7c0,0,37.4,32.7,62.9,35.5c25.6,2.8,35.3-5.3,35.3-5.3s-15-12.6-23.9-32.9
				c-2.6-6-8.3-10.1-14.7-10.7C2024.6,865.6,1990,864.6,1983.3,880.7z"/>
			<path class="st13" d="M2006.8,878c0,0-12.7,12.1-16.7,21.1c-3.9,8.7-5.2,29.5-2.2,37.8c0,0-19.3-38.2-8.1-56.7
				C1991.8,860.6,2006.8,878,2006.8,878z"/>
			<path class="st22" d="M1972.1,1095.4c0.9,118.9-0.2,94,12.7,105.4c3.1,2.7,11.9,4.4,23.5,5.3c36.4,2.7,100.5-2.9,103-9.6
				c8.6-23.2,2.7-30.5,10-66.2c0.8-3.8,1.7-7.9,2.8-12.4c6-24.5,11.8-32.8-8.7-72.3c-18.6-35.8-37.9-64.9-39.7-63.9
				c-49.9,29.1-53.7,4.3-53.7,4.3S1971.6,1037.4,1972.1,1095.4z"/>
			<path class="st14" d="M1842.7,1401l37.4,103c0,0,10.3,1.1,20.3-1.7c9.1-2.6,19.7-9.4,19.7-9.4s-9.8-110.3-29.1-173.8L1842.7,1401
				z"/>
			<path class="st22" d="M2022.1,986.1c0,0-51.1,8.3-57.3,30.3c-6.2,22-42.4,151-42.4,151s25.9,4.8,38-7.1
				c12.1-11.9,42.5-111,42.5-111L2022.1,986.1z"/>
			<path class="st29" d="M2008.3,1206c36.4,2.7,100.5-2.9,103-9.6c8.6-23.2,2.7-30.5,10-66.2l-17.2-49.6c0,0,2.5,55.1-13.8,69.5
				c-16.3,14.4-66.8,27.5-74.7,39.6C2011.6,1195.5,2009.1,1201.3,2008.3,1206z"/>
			<path class="st21" d="M2050.3,1183.1c0,0-35.9-8.3-41.7-5.1c-5.8,3.2-20.1,14.7-21.9,18.7c-1.8,4,12.9-3,17.7-4.2
				c3.1-0.8,11.2,2.1,15.3,3.5c16.9,5.8,27.4,2.9,27.4,2.9L2050.3,1183.1z"/>
			<path class="st22" d="M2075.8,981.7c0,0,48.3,3.3,64.8,26.7c23.3,33,69,173.2,42.1,191.6c-30.3,20.8-137.1,4.5-137.1,4.5
				s-3.4-16.7,1.6-24.7c5-8,85.6-20.4,89.3-24.1c3.7-3.7-45.9-72.8-45.8-83.9C2090.7,1060.8,2075.8,981.7,2075.8,981.7z"/>
			<path class="st21" d="M2006.7,1188c0,0-7.6,9.7-10.1,10.8c-2.5,1.1-4.1,0.8-4.1,0.8l5.1-9.1L2006.7,1188z"/>
			<path class="st21" d="M2008.5,1178l-22,10.5c0,0,0.9,1.5,3.6,1.4c2.7-0.1,9.5-2.5,9.5-2.5L2008.5,1178z"/>
		</g>
		<g>
			<g>
				<polygon class="st9" points="2001.3,1214.5 1828,1213.3 1776.8,1083.3 1949.8,1084.5 				"/>
				<polygon class="st10" points="1826,1208.2 2054.9,1209.8 2054.8,1214.9 1828,1213.3 				"/>
			</g>
			<path class="st24" d="M1872.2,1148.8c-1.3-4.6,1.4-8.2,5.9-8.2c4.6,0,9.3,3.8,10.6,8.3c1.3,4.6-1.4,8.2-5.9,8.2
				C1878.2,1157.1,1873.5,1153.4,1872.2,1148.8z"/>
		</g>
	</g>
	<g>
		
			<rect x="1159.1" y="1412.7" transform="matrix(1.958630e-04 -1 1 1.958630e-04 -464.7094 2887.0823)" class="st30" width="104.7" height="526.5"/>
		<path class="st15" d="M948.2,1728.2l-77.4-33.1l-45-19.3l46.1-19.7l76.3-32.6c0,0,10.2,25.5,10.3,49.5
			C958.8,1710.6,948.2,1728.2,948.2,1728.2z"/>
		<path class="st15" d="M1535.9,1658.4l0,33.1c0,20.4-16.5,36.9-36.9,36.8l-24.4,0l0-104.7l26.5,0
			C1520.4,1623.7,1535.9,1639.2,1535.9,1658.4z"/>
		<path class="st14" d="M871.9,1656.2c1.9,10.6,3.6,26.8-1.1,38.9l-45-19.3L871.9,1656.2z"/>
	</g>
	<g>
		<path class="st9" d="M1061.4,1078.6c0,0,9.4,40.9,36.9,40.9c23.6,0,55.9-53.3,55.9-53.3L1061.4,1078.6z"/>
		<path class="st14" d="M1377,1683l-17.7,12.1c0,0-84.9-90.5-105.4-177.3c-3.7-15.5-5.1-30.8-3.6-45.3c0,0-1.2-3.9-3.4-10.9
			c-0.1-0.3-0.2-0.6-0.3-0.9c-0.9-3-2.1-6.6-3.4-10.7c-4.1-13.1-9.8-31.1-16.2-51.5c-14.8-47-48.8-153.1-63.3-197.2l104.3-37.7
			c0,0,11.8,27,28.9,100.4c2.6,9.6,5.2,20.2,7.7,31.7c2.8,13.1,5.4,27.4,7.5,42.8c3.7,26.2,6.1,55.6,6.3,87.9
			c0.1,13.1-0.3,26.8-1,40.8c-0.6,10.3,1,24,3.8,39.7C1334.3,1578.4,1377,1683,1377,1683z"/>
		<path class="st13" d="M1432.6,1726.6h-84.3c0,0-3.2-13.4,2.4-22.6c4.9-8.1,3-12.7-0.6-19.4c3.8,1.6,8.8,3,14.2,2.7
			c4.2-0.2,8.6-2.1,12.5-4.4c3.6,4.1,19.2,21.7,24,25.2C1406.3,1712.1,1430.9,1710.7,1432.6,1726.6z"/>
		<path class="st13" d="M1312.1,1338.6l-65.5,122.1c-0.9-3-2.1-6.6-3.4-10.7c-4.1-13.1-9.8-31.1-16.2-51.5
			c-14.8-47-48.8-153.1-63.3-197.2l104.3-37.7c0,0,11.8,27,28.9,100.4c2.6,9.6,5.2,20.2,7.7,31.7
			C1307.4,1308.9,1310,1323.2,1312.1,1338.6z"/>
		<path class="st13" d="M1162.1,1700.2c0,0-5.8,14.3-0.3,26.4h45.9c0,0,1-10.9-15.7-23.5C1179.3,1693.5,1162.1,1700.2,1162.1,1700.2
			z"/>
		<path class="st31" d="M1212,768.1c0-2.3,1.2-26.9,38.6-29.1c0,0-18.4,2.6-21.3,10.8c0,0,12.3-10.3,22.6-7.3
			c10.3,3,16.7,20.7,16.9,26.6c0.2,5.9-5,25-11.4,26.7c-2.4,0.7-5.3,0.6-7.8,0.2c1.8,2.6,3.5,5.6,5.2,8.9c15.7,30.3,2.2,66-10.6,63
			c-8.2-1.9-13.1,12.2-13.1,12.2l-78.5-67.5C1152.5,812.5,1180,752,1212,768.1z"/>
		<path class="st21" d="M1162.6,973.1c8.7,6,19.6,11,33.3,14.2c51.3,11.9,71-31.5,78.4-61.3c-7-4-13.6-4.9-17.4-5.3
			c-3.7-0.4-7.6-0.7-10.8-0.9c-5.8-4.4-14.4-22.5-16.3-50.5l-2.4,0.6l-40.5,11.1c0,0,1.9,12.9,2.8,25c0.7,9.5,0.8,18.6-1,20.8
			c-3.2,0.7-5.1,1.1-5.1,1.1s0,0,0,0C1183.1,928.8,1171.4,948.1,1162.6,973.1z"/>
		<path class="st20" d="M1187,880.9c0,0,1.9,12.9,2.8,25c22.9-2.3,33.6-24.1,37.7-36.1L1187,880.9z"/>
		<path class="st21" d="M1186.5,900.2c0,0,52.8-13.6,43.8-46.3c-9-32.7-8.2-56.5-42.2-49.3c-34.1,7.3-37.2,21.6-36.9,33.2
			S1172.5,902.9,1186.5,900.2z"/>
		<path class="st31" d="M1147.8,819.3c5.4-12.1,12.1-11.6,16.4-9.6c24.4-23.7,49.3-5.4,49.3-5.4c10,22.5,30.6,31.3,30.6,31.3
			s-8,8.5-31.6,8.9c-7.2,0.1-14.6-3-21.3-7.4c13,12.5,28.2,20,28.2,20c-29.7-4.9-50.4-38.7-52.5-42.3c-2.4,3.8-7,11.8-7.3,18.4
			c-0.3,9.1,3.2,26.5-2,27.3C1157.7,860.5,1139.7,837.4,1147.8,819.3z"/>
		<path class="st21" d="M1171.3,925.2c0,0,88.6-21.5,127.2,10.3l-19.3,268.6l-173.4-41.9c0,0,4.9-17,38.1-62.2
			C1177.2,1054.8,1162.8,988.5,1171.3,925.2z"/>
		<path class="st14" d="M1223,1174.2c0,0-0.1,0.9-0.3,2.6c-0.1,0.7-0.2,1.6-0.3,2.7c-0.7,7-2.2,20.3-4,37.7
			c-4.8,45.6-12.2,118.7-17.3,176.5c-4,45.2-6.5,80.9-5.1,86.6c4.1,17.3,0,223.7,0,223.7c-14.7,7.1-37.1,0-37.1,0
			s-39.2-186-33.8-211.9c5.5-25.9-3.7-47.9-3.7-47.9c-30.5-141.9-27.1-220.6-21.1-258.2c1.8-11,3.8-18.4,5.2-23
			c1.2-3.9,2.1-5.7,2.1-5.7C1174.9,1139.3,1223,1174.2,1223,1174.2z"/>
		<path class="st9" d="M1310.5,1012.1c-4.3,32.3-21.4,71.9-27.5,93.2c0,0,10.2,73.9,0.5,94.2c-1.1,2.3-2.5,3.9-4.2,4.7
			c-36.1,15.7-176.9,0.5-182.9-45c-2.2-16.5,53.6-74.5,56.9-81.6c1.4-2.9,2.8-12.4-3.8-31.9c-9.3,28.6-60.4,20.4-60.4,20.4
			c6-10.3,21-81.4,37.7-113.5c12.6-24.1,46.1-27.6,46.1-27.6s14,22.1,47.7,19c33.8-3.1,39.9-23.8,39.9-23.8s29.9,4,39.2,11.4
			C1301.2,932.8,1316.1,969.7,1310.5,1012.1z"/>
		<path class="st10" d="M1282.9,1105.2c0,0,10.2,73.9,0.5,94.2c-26.3-13.2-47.1-49-42.3-88.8c3.5-29.4,8.8-36.2,24.6-53
			c11.6-12.4,38.3-13.1,36.2-7.2C1295.7,1068,1286.2,1094,1282.9,1105.2z"/>
		<g>
			<polygon class="st26" points="1173,1017.8 1233.4,1114.7 1130.7,1114.7 1073.2,1019.9 			"/>
			<polygon class="st27" points="1230.2,1109.8 1231.3,1106.4 1174.2,1014.8 1173,1017.8 			"/>
			<polygon class="st15" points="1174.2,1014.8 1077.4,1017.5 1073.2,1019.9 1173,1017.8 			"/>
			<polygon class="st25" points="1073.2,1019.9 1018.9,990.6 1082.1,1089.9 1130.7,1114.7 			"/>
		</g>
		<path class="st21" d="M1360.4,1087.8c-5.8,2.7-20.7,20.2-26.1,22c-23.9,8-125.9-13.3-125.9-13.3l3.2-17.9c0,0,100,2.7,111-0.3
			c2.1-0.6,12.9-17.5,17-19.9L1360.4,1087.8z"/>
		<path class="st21" d="M1211.6,1078.6c0,0-12.1-9.8-20.2-7.6c-8.2,2.2-20.1,12.5-24.6,15c-4.5,2.4-16.6,11.2-10.4,16.5
			c6.1,5.3,25.2,0.7,32.8-3.3c7.6-4,19.3-2.7,19.3-2.7L1211.6,1078.6z"/>
		<path class="st21" d="M1193.7,1070.7c0,0-14.7-1.7-18.7-1.7c-4,0.1-2.9,1-0.7,4.1c2.2,3.1,9.8,4.3,10.2,5.4
			S1193.7,1070.7,1193.7,1070.7z"/>
		<path class="st9" d="M1260.5,920.1c0,0,43.5,5.2,55.4,23.8c15.1,23.6,50.9,117.5,49.7,141.1c0,0-26.1,44.4-115.7,37.3
			c0,0-9.3-32.9,9.5-43.8c0,0,46-8.2,51.3-12.8l-37.5-68.2L1260.5,920.1z"/>
		<path class="st21" d="M1087.1,1055.3c-1.3-5.5-13.3-2.1-17.3,1.1c-1,0.8-2,2.1-3.1,3.6c-0.1-0.9-0.2-1.8-0.3-2.5
			c-0.2-2.6-3.2-7.2-4-3.7c-0.7,3.5-2,17.9-2,17.9c-0.1,11.7,7.4,16.5,12.2,12.7C1077.5,1080.7,1088.4,1060.8,1087.1,1055.3z"/>
	</g>
</g>
</svg>
