<svg id="Layer_1" data-name="Layer 1" xmlns="http://www.w3.org/2000/svg" viewBox="0 0 339.03 104.19"><defs><style>.cls-1{fill:#6397ff;}.cls-2{fill:#0d458e;}.cls-3{fill:#f1ddcb;}.cls-4{fill:#ffebd8;}.cls-5{fill:#0b3563;}.cls-6{fill:#e62552;}.cls-7{fill:#fff;}.cls-8{fill:#f5a3b7;}.cls-9{fill:#2bbf86;}.cls-10{fill:#e5f473;}</style></defs><title>logo</title><rect class="cls-1" x="6.7" y="2.19" width="100" height="100" rx="12" ry="12"/><polygon class="cls-2" points="76.43 37.68 101.68 78.19 58.72 78.19 34.66 38.56 76.43 37.68"/><polygon class="cls-3" points="100.37 76.02 100.81 74.61 76.91 36.27 76.43 37.55 100.37 76.02"/><polygon class="cls-4" points="76.91 36.27 36.44 37.42 34.66 38.42 76.43 37.55 76.91 36.27"/><polygon class="cls-5" points="34.66 38.42 11.96 26.14 38.42 67.7 58.72 78.06 34.66 38.42"/><rect class="cls-6" x="119.7" y="2.19" width="100" height="100" rx="12" ry="12"/><circle class="cls-7" cx="165.7" cy="64.19" r="26"/><path class="cls-8" d="M189.4,64.19a23.32,23.32,0,1,1-46.64,0Z"/><rect class="cls-7" x="172.68" y="18.21" width="13.56" height="41.08" transform="translate(43.24 -84.35) rotate(29.92)"/><rect class="cls-7" x="187.42" y="10.54" width="5.93" height="18.45" rx="2.84" ry="2.84" transform="translate(79.87 176.04) rotate(-60.66)"/><circle class="cls-8" cx="157.2" cy="53.69" r="1.5"/><circle class="cls-8" cx="165.7" cy="45.19" r="1"/><circle class="cls-8" cx="185.69" cy="32.19" r="1"/><circle class="cls-8" cx="181.7" cy="56.19" r="1"/><circle class="cls-8" cx="164.2" cy="59.69" r="1.5"/><circle class="cls-8" cx="178.19" cy="38.69" r="1.5"/><circle class="cls-8" cx="173.69" cy="54.19" r="2"/><rect class="cls-9" x="232.7" y="2.19" width="100" height="100" rx="12" ry="12"/><path class="cls-10" d="M264.7,87.19h-8V72.6a4,4,0,0,1,4-4h0a4,4,0,0,1,4,4Z"/><path class="cls-10" d="M286.7,87.19h-8V63.75a4,4,0,0,1,4-4h0a4,4,0,0,1,4,4Z"/><path class="cls-10" d="M275.7,87.19h-8V54.64a4,4,0,0,1,4-4h0a4,4,0,0,1,4,4Z"/><path class="cls-10" d="M299.7,87.19h-8V44a4,4,0,0,1,4-4h0a4,4,0,0,1,4,4Z"/><path class="cls-10" d="M312.7,87.19h-8V32.74a4,4,0,0,1,4-4h0a4,4,0,0,1,4,4Z"/><path class="cls-10" d="M253,56.53a1.28,1.28,0,0,1-.82-2.27l18.23-15.1a1.28,1.28,0,0,1,1.63,0l8,6.48L301.66,22a1.28,1.28,0,0,1,1.9,1.73L281.17,48.24a1.28,1.28,0,0,1-1.75.13l-8.17-6.58L253.83,56.23A1.28,1.28,0,0,1,253,56.53Z"/><polygon class="cls-10" points="303.68 28.76 301.54 24.06 296.66 22.34 307.78 17.23 303.68 28.76"/></svg>